<svg width="140" height="41" viewBox="0 0 140 41" fill="none" xmlns="http://www.w3.org/2000/svg">
<g clip-path="url(#clip0_1_573)">
<g clip-path="url(#clip1_1_573)">
<path d="M135.019 41.6265H4.90415C2.19665 41.6202 0.00399115 39.4166 0 36.6979V4.89492C0.00400163 2.17742 2.19783 -0.0240735 4.90415 -0.0263672H135.019C137.722 -0.0263672 140 2.18124 140 4.89492V36.6979C140 39.4106 137.722 41.6265 135.019 41.6265Z" fill="black"/>
<path fill-rule="evenodd" clip-rule="evenodd" d="M29.458 6.34644C29.6312 7.92086 29.0073 9.47232 28.0953 10.6127C27.1438 11.7354 25.6216 12.594 24.139 12.4835C23.945 10.9685 24.6961 9.35756 25.537 8.37472C26.4875 7.25937 28.1381 6.40487 29.458 6.34644ZM34.3115 15.4287C34.146 15.5275 31.4041 17.164 31.4342 20.5016C31.4685 24.5321 34.9596 25.8645 35.0024 25.8791C34.9815 25.9729 34.4556 27.8019 33.1462 29.6591C32.0528 31.2941 30.9073 32.8925 29.0876 32.9216C28.2226 32.9415 27.6384 32.6928 27.0298 32.4336C26.3949 32.1632 25.7333 31.8815 24.6982 31.8815C23.6009 31.8815 22.9099 32.1722 22.2436 32.4527C21.6674 32.6952 21.1096 32.93 20.3235 32.9624C18.5905 33.026 17.2664 31.2169 16.1333 29.5965C13.8682 26.2881 12.105 20.2732 14.4692 16.1801C15.6149 14.1726 17.7036 12.8799 19.9363 12.8455C20.9196 12.8254 21.8626 13.2043 22.6893 13.5365C23.3215 13.7905 23.8856 14.0171 24.3476 14.0171C24.7535 14.0171 25.3018 13.7995 25.9408 13.5459C26.948 13.1462 28.1805 12.657 29.4361 12.7892C30.2947 12.8142 32.7382 13.1282 34.3148 15.4267L34.3115 15.4287Z" fill="white"/>
<path fill-rule="evenodd" clip-rule="evenodd" d="M90.6225 31.7198C91.4457 30.9779 91.8557 30.017 91.8557 28.8359C91.8557 27.876 91.575 27.0717 91.0126 26.4289C90.4482 25.7841 89.5707 25.2217 88.3761 24.7407C87.3996 24.3558 86.7265 23.999 86.3562 23.6692C85.9305 23.3124 85.7187 22.8586 85.7187 22.3097C85.7122 21.8297 85.9152 21.3707 86.2748 21.0525C86.713 20.6686 87.3244 20.4756 88.107 20.4756C89.097 20.4756 89.9818 20.6884 90.7643 21.114L91.3205 19.3007C90.4827 18.8614 89.433 18.6414 88.1696 18.6414C86.7527 18.6414 85.6196 19.0055 84.7702 19.7347C83.9179 20.463 83.4922 21.3989 83.4922 22.5403C83.4922 24.2869 84.7066 25.6151 87.1376 26.5217C88.0307 26.8525 88.6703 27.2104 89.0532 27.5953C89.4383 27.9804 89.6302 28.4551 89.6302 29.0185C89.6302 29.6508 89.3975 30.1578 88.9311 30.5356C88.4628 30.9132 87.8107 31.1031 86.9727 31.1031C85.8053 31.1031 84.7338 30.8068 83.7571 30.2162L83.2418 32.0704C84.1485 32.6473 85.3462 32.9352 86.8403 32.9352C88.4585 32.9352 89.7179 32.5304 90.6225 31.7198ZM55.9706 32.7298H53.6011L52.3033 28.6512H47.7918L46.5554 32.7298H44.2486L48.7183 18.8448H51.479L55.9706 32.7298ZM51.912 26.9401L50.7382 23.3145C50.6141 22.9441 50.3814 22.0718 50.0381 20.6988H49.9964C49.7883 21.5736 49.5684 22.4455 49.337 23.3145L48.1841 26.9401H51.912ZM66.0849 31.6373C67.0052 30.6493 67.4652 29.3033 67.4652 27.6005C67.4652 26.0763 67.0709 24.8472 66.2801 23.9123C65.4912 22.9786 64.5053 22.5122 63.3242 22.5122C61.8134 22.5122 60.6877 23.109 59.9458 24.3046H59.904L59.7799 22.7177H57.8236C57.8779 23.8445 57.9061 24.9432 57.9061 26.0137V36.8092H60.1305V31.5351H60.1722C60.7492 32.4825 61.6965 32.9561 63.0154 32.9561C64.2371 32.9561 65.2606 32.5169 66.0849 31.6373ZM65.199 27.682C65.199 26.7074 64.98 25.9041 64.5397 25.2718C64.0587 24.6124 63.4128 24.2828 62.6033 24.2828C62.0544 24.2828 61.5557 24.4664 61.1102 24.8284C60.6636 25.1936 60.3715 25.6704 60.2348 26.2609C60.166 26.5364 60.1315 26.7617 60.1315 26.9391V28.6084C60.1315 29.3368 60.3548 29.9513 60.8013 30.4531C61.2479 30.955 61.8281 31.2054 62.5417 31.2054C63.3795 31.2054 64.0316 30.882 64.498 30.2372C64.9653 29.5913 65.199 28.74 65.199 27.682ZM77.5993 31.6373C78.5206 30.6493 78.9807 29.3033 78.9807 27.6005C78.9807 26.0763 78.5852 24.8472 77.7975 23.9123C77.0067 22.9786 76.0207 22.5122 74.8407 22.5122C73.3289 22.5122 72.2031 23.109 71.4624 24.3046H71.4206L71.2964 22.7177H69.3402C69.3944 23.8445 69.4225 24.9432 69.4225 26.0137V36.8092H71.647V31.5351H71.6887C72.2646 32.4825 73.212 32.9561 74.5308 32.9561C75.7526 32.9561 76.7761 32.5169 77.5993 31.6373ZM76.7146 27.682C76.7146 26.7074 76.4944 25.9041 76.0541 25.2718C75.5732 24.6124 74.9294 24.2828 74.1187 24.2828C73.5719 24.2825 73.0426 24.4759 72.6246 24.8284C72.1781 25.1936 71.887 25.6704 71.7503 26.2609C71.6824 26.5364 71.647 26.7617 71.647 26.9391V28.6084C71.647 29.3368 71.8703 29.9513 72.3147 30.4531C72.7614 30.954 73.3414 31.2054 74.0571 31.2054C74.8949 31.2054 75.547 30.882 76.0134 30.2372C76.4809 29.5913 76.7146 28.74 76.7146 27.682ZM99.2103 24.387H96.7584V29.248C96.7584 30.4844 97.1903 31.1021 98.0564 31.1021C98.4539 31.1021 98.7835 31.0677 99.0443 30.9988L99.1059 32.688C98.6677 32.8518 98.0907 32.9342 97.376 32.9342C96.4976 32.9342 95.811 32.6661 95.3155 32.1309C94.8219 31.5946 94.5736 30.6951 94.5736 29.4317V24.3849H93.113V22.7156H94.5736V20.8824L96.7584 20.223V22.7156H99.2103V24.387ZM108.954 31.4318C109.833 30.4437 110.273 29.1802 110.273 27.6413C110.273 26.1441 109.847 24.9223 108.994 23.9759C108.102 23.0004 106.92 22.5132 105.451 22.5132C103.926 22.5132 102.714 23.0077 101.816 23.9969C100.915 24.9849 100.466 26.2557 100.466 27.8072C100.466 29.2898 100.903 30.52 101.775 31.4944C102.647 32.4688 103.817 32.9561 105.286 32.9561C106.81 32.9561 108.033 32.4491 108.954 31.4318ZM107.965 27.7132C107.965 26.7899 107.768 25.998 107.368 25.3375C106.902 24.5384 106.235 24.1398 105.371 24.1398C104.477 24.1398 103.798 24.5394 103.332 25.3375C102.932 25.999 102.735 26.8035 102.735 27.755C102.735 28.6784 102.932 29.4703 103.332 30.1297C103.813 30.9288 104.484 31.3274 105.352 31.3274C106.201 31.3274 106.867 30.9205 107.348 30.1089C107.758 29.4358 107.965 28.6356 107.965 27.7132ZM116.803 24.6124C117.038 24.6116 117.273 24.6322 117.503 24.674V22.5529C117.339 22.5268 117.152 22.5122 116.947 22.5122C116.368 22.513 115.803 22.7011 115.339 23.0485C114.832 23.446 114.462 23.9759 114.227 24.6344H114.166L114.084 22.7187H112.147C112.202 23.6661 112.23 24.7168 112.23 25.8707L112.209 32.7298H114.433V27.4764C114.433 26.6804 114.618 26.021 114.989 25.4993C115.415 24.9077 116.02 24.6124 116.803 24.6124ZM127.452 27.2501C127.458 27.5882 127.43 27.9261 127.37 28.2589H120.697C120.723 29.248 121.046 30.0045 121.666 30.5262C122.228 30.9925 122.955 31.2262 123.848 31.2262C124.836 31.2262 125.737 31.0687 126.548 30.7525L126.897 32.2967C125.949 32.7099 124.831 32.9155 123.54 32.9155C121.987 32.9155 120.769 32.4584 119.882 31.5455C118.998 30.6325 118.555 29.4067 118.555 27.8687C118.555 26.3591 118.966 25.1017 119.791 24.0992C120.656 23.0287 121.823 22.4934 123.291 22.4934C124.735 22.4934 125.828 23.0287 126.569 24.0992C127.157 24.9495 127.452 26.0012 127.452 27.2501ZM124.899 24.963C125.201 25.444 125.345 26.0137 125.33 26.6731L120.697 26.672C120.764 26.0002 120.985 25.4231 121.356 24.9422C121.807 24.337 122.399 24.0354 123.126 24.0354C123.922 24.0354 124.513 24.3443 124.899 24.963Z" fill="white"/>
<path fill-rule="evenodd" clip-rule="evenodd" d="M45.3064 7.4483C45.5433 7.3064 45.8104 7.18746 46.1109 7.08939C46.4536 6.98506 46.8107 6.93541 47.1689 6.94228C47.8231 6.94228 48.3384 7.09773 48.7162 7.40761C49.0938 7.71748 49.2827 8.13587 49.2827 8.66276C49.2827 9.08115 49.1564 9.43172 48.904 9.7155C48.6515 9.9993 48.328 10.1881 47.9368 10.2821V10.3123C48.1527 10.3467 48.3573 10.4052 48.5492 10.4897C48.7422 10.5742 48.9112 10.6869 49.0552 10.8288C49.3606 11.1226 49.531 11.5297 49.5257 11.9535C49.5257 12.3311 49.4496 12.6484 49.2972 12.905C49.145 13.1617 48.9468 13.3704 48.7004 13.5332C48.4553 13.6948 48.1799 13.8117 47.8763 13.8816C47.5726 13.9516 47.269 13.988 46.9654 13.988C46.6409 13.988 46.3206 13.9536 46.0034 13.8869C45.6863 13.82 45.3931 13.7085 45.1228 13.553L45.3962 12.7131C45.5715 12.8007 45.7979 12.8852 46.0743 12.9666C46.3509 13.0479 46.6305 13.0876 46.9142 13.0876C47.3796 13.0876 47.7395 12.9832 47.992 12.7746C48.243 12.5694 48.3834 12.2586 48.3718 11.9347C48.3802 11.7298 48.3271 11.5271 48.2195 11.3525C48.119 11.2021 47.9832 11.0785 47.8241 10.9926C47.6549 10.9024 47.4719 10.8411 47.2826 10.811C47.0871 10.7776 46.8892 10.7605 46.691 10.7599H46.2351V9.92835H46.691C46.8996 9.92835 47.0937 9.90227 47.2731 9.84696C47.4515 9.79375 47.6071 9.7176 47.7385 9.61951C47.8699 9.52145 47.9732 9.40459 48.0473 9.26999C48.122 9.12977 48.1601 8.97292 48.1579 8.81405C48.1579 8.51044 48.0494 8.27255 47.8335 8.1004C47.6175 7.92825 47.3274 7.84164 46.9633 7.84164C46.7139 7.84164 46.4636 7.88233 46.2142 7.96268C45.9858 8.03571 45.7624 8.12354 45.5453 8.2256L45.3064 7.4483ZM53.9986 13.8753L53.9183 13.3088H53.8881C53.5583 13.7605 53.0794 13.987 52.4513 13.987C52.2281 13.987 52.0267 13.9495 51.8441 13.8753C51.6615 13.8013 51.503 13.7 51.3683 13.5717C51.233 13.4433 51.1261 13.288 51.0543 13.1158C50.979 12.9329 50.9414 12.7367 50.9437 12.5388C50.9437 11.9254 51.193 11.4642 51.6928 11.1574C52.1926 10.8507 52.9 10.6973 53.8181 10.6973V10.6065C53.8181 9.9586 53.478 9.63517 52.7977 9.63517C52.3126 9.63517 51.8848 9.75724 51.5155 9.9993L51.2932 9.28147C51.745 8.99872 52.3073 8.85683 52.9803 8.85683C54.2668 8.85683 54.9105 9.53501 54.9105 10.8914V12.7027C54.9105 13.2086 54.9345 13.5999 54.9815 13.8763L53.9986 13.8753ZM52.4837 11.6593C52.7821 11.5038 53.237 11.4266 53.8473 11.4266V12.1851C53.8484 12.3234 53.8177 12.4601 53.7576 12.5848C53.6998 12.7056 53.6191 12.8141 53.5197 12.904C53.3174 13.0874 53.054 13.1885 52.781 13.1878C52.5849 13.1949 52.3935 13.1261 52.2468 12.9959C52.106 12.8674 52.036 12.6755 52.036 12.4188C52.036 12.0683 52.1853 11.8148 52.4837 11.6593ZM60.1836 8.95699V9.8574H58.1386V13.8753H57.0463V8.95699H60.1836ZM66.2758 12.4282C66.3832 12.1048 66.4375 11.747 66.4375 11.3557C66.4375 10.9842 66.3853 10.6451 66.281 10.3373C66.1766 10.0296 66.0337 9.76663 65.8511 9.54752C65.6686 9.32842 65.4546 9.15836 65.2084 9.03628C64.9622 8.91526 64.6929 8.85474 64.4039 8.85474C63.6611 8.85474 63.1082 9.14896 62.7441 9.73533H62.7231L62.6616 8.95595H61.7007C61.7247 9.49574 61.7379 10.036 61.7403 10.5763V15.8796H62.8337V13.289H62.8546C63.1384 13.7543 63.6037 13.987 64.2517 13.987C64.8592 13.9934 65.4373 13.7255 65.825 13.2577C66.0267 13.0124 66.1797 12.7309 66.2758 12.4282ZM65.3253 11.3963C65.3253 11.1532 65.296 10.9289 65.2386 10.7234C65.1813 10.5178 65.0968 10.3426 64.9861 10.1975C64.8755 10.0525 64.7399 9.93774 64.5813 9.85322C64.4172 9.76756 64.2343 9.72417 64.0492 9.72698C63.8948 9.72698 63.7425 9.76141 63.5933 9.82818C63.4441 9.89496 63.3147 9.98678 63.2041 10.1015C63.0924 10.2163 63.0038 10.3551 62.936 10.5168C62.8682 10.6785 62.8337 10.8507 62.8337 11.0333V11.8533C62.8337 12.0348 62.862 12.2039 62.9203 12.3594C62.9777 12.5148 63.0581 12.6494 63.1624 12.7642C63.2667 12.879 63.3919 12.9687 63.537 13.0323C63.6819 13.097 63.8416 13.1283 64.0169 13.1283C64.429 13.1283 64.7493 12.9718 64.9789 12.6578C65.2084 12.3438 65.3253 11.9222 65.3253 11.3963ZM72.3091 8.95803L71.0636 12.3677C70.7673 13.1774 70.4784 13.8399 70.1988 14.3563C69.9181 14.8728 69.651 15.2483 69.3943 15.4852C69.0166 15.8222 68.6149 16.0289 68.1892 16.1019L67.9264 15.1816C68.209 15.1075 68.4793 14.9626 68.7359 14.7465C68.9916 14.5305 69.1971 14.2614 69.3537 13.9369C69.3944 13.8687 69.4217 13.7933 69.434 13.7147C69.4241 13.6348 69.4038 13.5565 69.3735 13.482L67.5914 8.95803H68.7954L69.7272 11.701C69.7752 11.8293 69.8222 11.9743 69.869 12.1361C69.917 12.2978 69.9671 12.4773 70.0214 12.6723H70.0422C70.0834 12.5369 70.1203 12.4001 70.1528 12.2623C70.1936 12.0974 70.2478 11.9065 70.3146 11.6906L71.1451 8.95803H72.3091ZM74.2021 11.0009H74.7071C75.0775 11.0009 75.3655 10.9341 75.5668 10.7985C75.7682 10.6629 75.8704 10.498 75.8704 10.3019C75.8743 10.1062 75.7763 9.9225 75.6117 9.81671C75.4405 9.69568 75.2016 9.63413 74.898 9.63413C74.7019 9.63413 74.5046 9.66647 74.3075 9.73012C74.1162 9.7914 73.9314 9.87106 73.7556 9.968L73.4728 9.26061C73.7373 9.11275 74.0225 9.00548 74.3189 8.94238C74.5966 8.88499 74.8795 8.85597 75.163 8.85579C75.3873 8.85579 75.6117 8.87769 75.8371 8.92152C76.0613 8.96533 76.2627 9.03942 76.438 9.14375C76.6133 9.24809 76.7583 9.38477 76.8679 9.55378C76.9795 9.7228 77.0348 9.93148 77.0348 10.1819C77.0348 10.3373 77.0045 10.474 76.943 10.5919C76.8827 10.7105 76.8005 10.8167 76.7009 10.9049C76.6005 10.9961 76.4864 11.0711 76.3629 11.1272C76.2417 11.1834 76.1146 11.2261 75.9841 11.2544V11.2847C76.1448 11.3056 76.3024 11.3463 76.4547 11.4068C76.606 11.4673 76.7416 11.5466 76.8647 11.6447C76.9847 11.7428 77.0828 11.8606 77.1579 11.9984C77.2309 12.1371 77.2675 12.2937 77.2675 12.4689C77.2675 12.759 77.1987 13.0021 77.0556 13.1972C76.9143 13.3932 76.7283 13.5526 76.5131 13.6625C76.2855 13.7802 76.042 13.8639 75.7901 13.9108C75.2384 14.0184 74.6707 14.0116 74.1218 13.891C73.8411 13.8327 73.5709 13.7321 73.3204 13.5926L73.6053 12.8738C73.7806 12.9687 73.9798 13.0479 74.2062 13.1117C74.4327 13.1753 74.6633 13.2076 74.8991 13.2076C75.2694 13.2076 75.5553 13.1356 75.7546 12.9905C75.9518 12.8456 76.0519 12.6651 76.0519 12.449C76.0519 12.3072 76.0196 12.1882 75.9518 12.0901C75.8839 11.9921 75.789 11.9128 75.6691 11.8522C75.5348 11.7877 75.3911 11.745 75.2434 11.726C75.0691 11.7014 74.8934 11.6895 74.7175 11.6906H74.2021V11.0009ZM80.0407 10.6973V8.95699H78.9984V13.8743H80.4143C80.6428 13.4496 80.8607 13.0344 81.0664 12.6295C81.2729 12.2248 81.4806 11.82 81.6902 11.4151C81.804 11.1783 81.9187 10.9488 82.0325 10.7265C82.1628 10.4703 82.2778 10.2066 82.3768 9.93669H82.4279C82.407 10.3081 82.3893 10.6754 82.3726 11.0406C82.3569 11.4047 82.3465 11.7688 82.3465 12.1329V13.8732H83.3795V8.9549H81.9636L80.7491 11.2826C80.6208 11.5393 80.4945 11.7907 80.3683 12.0369L79.9896 12.7913L79.9687 12.7715C79.9896 12.4209 80.0053 12.087 80.0198 11.7699C80.0344 11.4537 80.0407 11.0959 80.0407 10.6973ZM89.1492 8.95699V9.8574H87.6519V13.8753H86.5773V9.8574H85.0894V8.95699H89.1492ZM94.7144 11.4516C94.7206 11.3671 94.7248 11.2774 94.7248 11.1835C94.7248 10.8329 94.6778 10.5137 94.5819 10.2278C94.488 9.94191 94.3513 9.69464 94.1719 9.4891C93.9945 9.28251 93.7785 9.12393 93.526 9.01333C93.2586 8.89937 92.9705 8.8425 92.6799 8.84639C92.3293 8.84639 92.009 8.91422 91.7221 9.0488C91.4372 9.18444 91.1921 9.36911 90.9885 9.60595C90.7872 9.84176 90.6296 10.1203 90.5181 10.4406C90.4085 10.7609 90.3532 11.1105 90.3532 11.4882C90.3532 11.8659 90.4085 12.206 90.5181 12.5096C90.6222 12.8001 90.7861 13.0656 90.9991 13.289C91.2162 13.5099 91.479 13.6808 91.7691 13.7898C92.0727 13.9077 92.4169 13.9672 92.7999 13.9672C93.4353 13.9672 93.9841 13.8659 94.4505 13.6636L94.2793 12.904C93.8745 13.0595 93.4322 13.1367 92.9533 13.1367C92.4952 13.1367 92.1249 13.0094 91.8452 12.7569C91.5655 12.5043 91.4195 12.1444 91.4048 11.679H94.6842C94.699 11.604 94.7091 11.528 94.7144 11.4516ZM93.6815 10.9008C93.6815 10.5158 93.5896 10.2038 93.4039 9.96486C93.2182 9.72594 92.95 9.60491 92.5996 9.60491C92.2813 9.60491 92.0132 9.72594 91.7909 9.96904C91.5687 10.2121 91.4404 10.522 91.4059 10.9008H93.6815ZM99.8769 8.9163C99.5733 8.93716 99.325 8.96429 99.1288 8.99768V13.8753C99.3041 13.889 99.5201 13.9025 99.7809 13.916C100.04 13.9306 100.305 13.9369 100.576 13.9369C100.851 13.9348 101.125 13.9212 101.399 13.8962C101.699 13.8707 101.993 13.8058 102.276 13.7031C102.553 13.602 102.785 13.4496 102.975 13.2473C103.161 13.0448 103.257 12.7715 103.257 12.4272C103.257 12.0828 103.146 11.8137 102.923 11.6175C102.701 11.4214 102.41 11.2931 102.053 11.2325L102.043 11.2023C102.172 11.1762 102.294 11.1334 102.412 11.076C102.528 11.0208 102.634 10.9476 102.726 10.859C102.921 10.6752 103.03 10.4182 103.026 10.1506C103.026 9.86053 102.946 9.63203 102.791 9.46302C102.635 9.29399 102.445 9.16774 102.214 9.08323C101.987 8.99873 101.743 8.94447 101.491 8.92152C101.239 8.89856 101.01 8.88604 100.809 8.88604C100.49 8.88604 100.181 8.89543 99.8769 8.9163ZM100.181 10.9613H100.737C100.906 10.9613 101.066 10.9498 101.218 10.9258C101.37 10.9028 101.502 10.8653 101.617 10.8152C101.723 10.7716 101.815 10.7019 101.886 10.6128C101.952 10.5234 101.986 10.4147 101.982 10.304C101.993 10.0998 101.884 9.90813 101.703 9.81358C101.517 9.70924 101.226 9.65707 100.828 9.65707C100.715 9.65707 100.615 9.66021 100.529 9.66751L100.181 9.69776V10.9613ZM100.519 13.1669C100.429 13.1596 100.315 13.1502 100.181 13.1367V11.6686H100.758C101.184 11.6686 101.52 11.7219 101.771 11.8293C102.019 11.9368 102.145 12.1309 102.145 12.4126C102.151 12.5513 102.11 12.688 102.027 12.7996C101.946 12.9013 101.84 12.9809 101.719 13.0313C101.584 13.0905 101.441 13.1295 101.294 13.1471C101.037 13.1782 100.777 13.1848 100.519 13.1669Z" fill="white"/>
</g>
</g>
<defs>
<clipPath id="clip0_1_573">
<rect width="140" height="40" fill="white" transform="translate(0 0.800049)"/>
</clipPath>
<clipPath id="clip1_1_573">
<rect width="140" height="41.6529" fill="white" transform="translate(0 -0.0263672)"/>
</clipPath>
</defs>
</svg>
