<svg width="140" height="41" viewBox="0 0 140 41" fill="none" xmlns="http://www.w3.org/2000/svg">
<g clip-path="url(#clip0_1_581)">
<g clip-path="url(#clip1_1_581)">
<path d="M135.019 41.6265H4.90415C2.19665 41.6202 0.00399115 39.4166 0 36.6979V4.89492C0.00400163 2.17742 2.19783 -0.0240735 4.90415 -0.0263672H135.019C137.722 -0.0263672 140 2.18124 140 4.89492V36.6979C140 39.4106 137.722 41.6265 135.019 41.6265Z" fill="black"/>
<path d="M70.8107 23.2518C69.9551 23.2558 69.1197 23.5133 68.4102 23.9916C67.7007 24.4699 67.1488 25.1477 66.8242 25.9393C66.4995 26.7311 66.4167 27.6012 66.5861 28.4399C66.7555 29.2786 67.1696 30.0484 67.776 30.652C68.3825 31.2556 69.1542 31.6661 69.9936 31.8316C70.8332 31.997 71.7029 31.91 72.493 31.5817C73.2833 31.2533 73.9584 30.6983 74.4334 29.9865C74.9083 29.2748 75.1618 28.4383 75.1618 27.5825C75.1702 27.0098 75.0631 26.4412 74.8471 25.9107C74.6312 25.3802 74.3106 24.8986 73.9047 24.4945C73.4987 24.0904 73.0155 23.7722 72.484 23.5586C71.9525 23.3452 71.3834 23.2408 70.8107 23.2518ZM70.8107 30.2116C70.2845 30.2484 69.7593 30.126 69.3036 29.8605C68.8478 29.5948 68.4824 29.1983 68.2551 28.7223C68.0277 28.2463 67.9487 27.7129 68.0285 27.1914C68.1082 26.67 68.3431 26.1846 68.7024 25.7984C69.0616 25.4121 69.5288 25.1429 70.0431 25.0257C70.5576 24.9085 71.0952 24.9487 71.5864 25.1411C72.0775 25.3336 72.4994 25.6693 72.7973 26.1048C73.0951 26.5402 73.255 27.055 73.2563 27.5825C73.2727 27.9168 73.2221 28.2509 73.1073 28.5653C72.9925 28.8797 72.816 29.1679 72.588 29.4129C72.3601 29.6579 72.0854 29.8548 71.7802 29.992C71.4748 30.1291 71.1453 30.2039 70.8107 30.2116ZM61.3238 23.2518C60.4677 23.2539 59.6314 23.5096 58.9205 23.9866C58.2097 24.4638 57.6563 25.1409 57.33 25.9324C57.0038 26.7238 56.9195 27.5943 57.0877 28.4337C57.2559 29.2731 57.6692 30.0439 58.2753 30.6485C58.8813 31.2531 59.6531 31.6646 60.4928 31.8309C61.3327 31.9972 62.2029 31.9107 62.9936 31.5827C63.7844 31.2546 64.4601 30.6995 64.9356 29.9875C65.411 29.2756 65.6647 28.4387 65.6647 27.5825C65.6731 27.0098 65.566 26.4412 65.35 25.9107C65.1341 25.3802 64.8135 24.8986 64.4076 24.4945C64.0016 24.0904 63.5184 23.7722 62.9869 23.5586C62.4554 23.3452 61.8863 23.2408 61.3136 23.2518H61.3238ZM61.3238 30.2116C60.7974 30.2505 60.2714 30.1299 59.8144 29.8657C59.3573 29.6014 58.9904 29.2057 58.7613 28.7301C58.5324 28.2544 58.452 27.7208 58.5304 27.1987C58.609 26.6767 58.8428 26.1904 59.2016 25.8031C59.5604 25.4158 60.0274 25.1455 60.5419 25.0274C61.0564 24.9092 61.5947 24.9488 62.0864 25.1407C62.5781 25.3327 63.0007 25.6683 63.2991 26.1038C63.5975 26.5393 63.7578 27.0547 63.7592 27.5825C63.7757 27.9168 63.725 28.2509 63.6102 28.5653C63.4954 28.8797 63.3189 29.1679 63.0909 29.4129C62.863 29.6579 62.5883 29.8548 62.2831 29.992C61.9779 30.1291 61.6482 30.2039 61.3136 30.2116H61.3238ZM50.0231 24.5868V26.4209H54.4252C54.3562 27.2848 53.9971 28.1001 53.4062 28.734C52.9658 29.1827 52.4363 29.5341 51.8519 29.7657C51.2675 29.9973 50.6411 30.1041 50.013 30.0792C48.7157 30.0792 47.4716 29.5638 46.5543 28.6465C45.637 27.7292 45.1218 26.4852 45.1218 25.1879C45.1218 23.8907 45.637 22.6467 46.5543 21.7294C47.4716 20.8121 48.7157 20.2967 50.013 20.2967C51.2539 20.2765 52.4522 20.7492 53.3451 21.6112L54.6392 20.3171C54.0364 19.7068 53.3173 19.2236 52.5244 18.8963C51.7315 18.569 50.8808 18.4042 50.0231 18.4116C49.1172 18.3763 48.2136 18.5243 47.3662 18.8466C46.5189 19.169 45.7453 19.6591 45.0919 20.2876C44.4385 20.916 43.9187 21.6699 43.5637 22.5041C43.2086 23.3382 43.0256 24.2355 43.0256 25.1421C43.0256 26.0487 43.2086 26.9459 43.5637 27.78C43.9187 28.6142 44.4385 29.3682 45.0919 29.9965C45.7453 30.625 46.5189 31.1152 47.3662 31.4375C48.2136 31.7598 49.1172 31.9078 50.0231 31.8725C50.8953 31.912 51.7659 31.7641 52.5761 31.439C53.3865 31.1138 54.1177 30.6188 54.7207 29.9874C55.7882 28.8145 56.3583 27.2726 56.3103 25.6872C56.3137 25.301 56.2795 24.9154 56.2085 24.5357L50.0231 24.5868ZM96.194 26.0134C95.9283 25.2314 95.4313 24.5488 94.769 24.0557C94.1066 23.5626 93.3101 23.2822 92.4849 23.2518C91.9275 23.2507 91.3758 23.364 90.8639 23.5845C90.3519 23.8052 89.8907 24.1283 89.5087 24.5342C89.1268 24.9402 88.8321 25.4202 88.6428 25.9444C88.4536 26.4688 88.374 27.0262 88.4088 27.5825C88.3964 28.1521 88.499 28.7183 88.7103 29.2474C88.9216 29.7764 89.2375 30.2573 89.6389 30.6616C90.0402 31.0659 90.519 31.385 91.0465 31.6001C91.574 31.8152 92.1394 31.9217 92.709 31.9134C93.4219 31.9172 94.1244 31.7442 94.754 31.4098C95.3835 31.0756 95.9203 30.5903 96.3163 29.9976L94.8388 28.9786C94.6182 29.3463 94.3061 29.6504 93.9327 29.8611C93.5594 30.0719 93.1377 30.1821 92.709 30.1811C92.2676 30.1979 91.8314 30.0815 91.457 29.8471C91.0827 29.6126 90.7874 29.271 90.6099 28.8665L96.408 26.4719L96.194 26.0134ZM90.2838 27.4603C90.2632 27.1452 90.3057 26.829 90.4086 26.5304C90.5117 26.2318 90.6734 25.9568 90.8839 25.7214C91.0946 25.4861 91.3501 25.2952 91.6355 25.1598C91.921 25.0245 92.2305 24.9474 92.546 24.9332C92.8747 24.9115 93.2025 24.9869 93.4887 25.1499C93.775 25.313 94.007 25.5565 94.156 25.8502L90.2838 27.4603ZM85.5761 31.6586H87.4816V18.921H85.5761V31.6586ZM82.4579 24.2199H82.3865C82.0993 23.8988 81.7476 23.642 81.3542 23.4664C80.9608 23.2908 80.5348 23.2003 80.1041 23.2009C78.9904 23.2549 77.9403 23.7353 77.1713 24.5424C76.4023 25.3497 75.9734 26.4218 75.9734 27.5367C75.9734 28.6516 76.4023 29.7237 77.1713 30.531C77.9403 31.3382 78.9904 31.8186 80.1041 31.8725C80.5359 31.8798 80.964 31.7924 81.3584 31.6163C81.7527 31.4403 82.1036 31.1799 82.3865 30.8535H82.4477V31.4751C82.4477 33.1361 81.5612 34.0226 80.1346 34.0226C79.6594 34.0115 79.1983 33.8593 78.81 33.5853C78.4216 33.3113 78.1237 32.9279 77.9539 32.484L76.2929 33.1769C76.6056 33.9375 77.1384 34.5873 77.8229 35.0429C78.5072 35.4987 79.3123 35.7395 80.1346 35.7346C82.3661 35.7346 84.2106 34.4201 84.2106 31.2204V23.5066H82.4579V24.2199ZM80.2773 30.2116C79.6199 30.1537 79.0081 29.8516 78.5625 29.365C78.1169 28.8784 77.8697 28.2424 77.8697 27.5825C77.8697 26.9227 78.1169 26.2868 78.5625 25.8001C79.0081 25.3135 79.6199 25.0115 80.2773 24.9535C80.6032 24.9703 80.9224 25.0521 81.2162 25.1941C81.51 25.336 81.7724 25.5355 81.988 25.7805C82.2036 26.0255 82.3679 26.3112 82.4713 26.6206C82.5748 26.9301 82.6153 27.2572 82.5904 27.5825C82.6181 27.9094 82.5794 28.2384 82.4764 28.5498C82.3734 28.8612 82.2083 29.1484 81.9912 29.3942C81.774 29.6399 81.5093 29.8391 81.2128 29.9795C80.9165 30.1201 80.5947 30.199 80.2671 30.2116H80.2773ZM105.12 18.921H100.566V31.6586H102.471V26.8285H105.131C105.674 26.8675 106.219 26.7942 106.733 26.6133C107.246 26.4322 107.717 26.1474 108.115 25.7764C108.514 25.4055 108.832 24.9563 109.049 24.4572C109.266 23.9579 109.379 23.4193 109.379 22.8748C109.379 22.3303 109.266 21.7917 109.049 21.2925C108.832 20.7932 108.514 20.3442 108.115 19.9732C107.717 19.6023 107.246 19.3174 106.733 19.1364C106.219 18.9554 105.674 18.882 105.131 18.921H105.12ZM105.12 25.0351H102.461V20.6942H105.161C105.741 20.6942 106.297 20.9244 106.707 21.3344C107.117 21.7443 107.347 22.3002 107.347 22.8799C107.347 23.4596 107.117 24.0155 106.707 24.4255C106.297 24.8354 105.741 25.0656 105.161 25.0656L105.12 25.0351ZM116.87 23.2009C116.176 23.1595 115.485 23.3215 114.882 23.6673C114.279 24.0131 113.791 24.5274 113.476 25.1472L115.168 25.8502C115.335 25.5429 115.587 25.2906 115.895 25.1242C116.202 24.9577 116.552 24.8843 116.9 24.9128C117.142 24.8846 117.387 24.9047 117.621 24.9723C117.856 25.0397 118.073 25.1531 118.263 25.3058C118.453 25.4586 118.61 25.6475 118.726 25.8617C118.841 26.076 118.914 26.3111 118.939 26.5533V26.6858C118.327 26.3619 117.644 26.1939 116.951 26.1968C115.127 26.1968 113.283 27.2157 113.283 29.0602C113.301 29.4534 113.397 29.8391 113.567 30.1943C113.737 30.5496 113.976 30.8672 114.27 31.1285C114.565 31.3897 114.909 31.5893 115.282 31.7153C115.655 31.8414 116.048 31.8914 116.442 31.8624C116.922 31.8968 117.402 31.8015 117.833 31.5863C118.262 31.3712 118.626 31.0441 118.887 30.6396H118.948V31.6586H120.783V26.7572C120.783 24.5255 119.091 23.2314 116.921 23.2314L116.87 23.2009ZM116.635 30.1811C116.014 30.1811 115.147 29.8651 115.147 29.1009C115.147 28.0819 116.228 27.7457 117.186 27.7457C117.791 27.7307 118.389 27.8785 118.918 28.1736C118.854 28.7253 118.593 29.2353 118.183 29.6099C117.772 29.9844 117.241 30.1981 116.686 30.2116L116.635 30.1811ZM127.467 23.5066L125.286 29.0296H125.225L122.963 23.5066H120.925L124.319 31.2306L122.382 35.5206H124.37L129.587 23.5066H127.467ZM110.338 31.6586H112.243V18.921H110.338V31.6586Z" fill="white"/>
<path d="M12.0144 8.77177C11.6822 9.17031 11.5146 9.68051 11.5456 10.1984V32.7387C11.5146 33.2566 11.6822 33.7667 12.0144 34.1653L12.0857 34.2366L24.7112 21.6214V21.3258L12.0857 8.70044L12.0144 8.77177Z" fill="url(#paint0_linear_1_581)"/>
<path d="M28.8891 25.8299L24.7112 21.6214V21.3259L28.8891 17.1072L28.9808 17.1582L33.9841 20.0012C35.4107 20.8062 35.4107 22.1309 33.9841 22.9461L29.0012 25.779L28.8891 25.8299Z" fill="url(#paint1_linear_1_581)"/>
<path d="M29.0114 25.7686L24.7112 21.4685L12.0144 34.1652C12.3052 34.4208 12.6761 34.5668 13.0632 34.5779C13.4502 34.5892 13.8289 34.4648 14.134 34.2263L29.0215 25.7686" fill="url(#paint2_linear_1_581)"/>
<path d="M29.0114 17.1682L14.1238 8.7105C13.8188 8.47206 13.44 8.34768 13.053 8.35885C12.6659 8.37001 12.295 8.51602 12.0042 8.77164L24.7112 21.4684L29.0114 17.1682Z" fill="url(#paint3_linear_1_581)"/>
<path opacity="0.2" d="M28.8891 25.677L14.1238 34.0837C13.8296 34.3037 13.4721 34.4226 13.1048 34.4226C12.7375 34.4226 12.3799 34.3037 12.0858 34.0837L12.0144 34.1551L12.0858 34.2264C12.3794 34.4479 12.737 34.5678 13.1048 34.5678C13.4725 34.5678 13.8303 34.4479 14.1238 34.2264L29.0114 25.7688L28.8891 25.677Z" fill="black"/>
<path opacity="0.12" d="M12.0144 34.0226C11.6822 33.624 11.5146 33.1138 11.5456 32.596V32.7488C11.5146 33.2667 11.6822 33.7768 12.0144 34.1754L12.0857 34.104L12.0144 34.0226ZM33.984 22.7932L28.889 25.677L28.9807 25.7686L33.984 22.9358C34.2679 22.8024 34.5116 22.5966 34.6905 22.3389C34.8695 22.0813 34.9772 21.781 35.003 21.4685C34.9457 21.7524 34.8241 22.0196 34.6474 22.2492C34.4708 22.4788 34.2439 22.6649 33.984 22.7932Z" fill="black"/>
<path opacity="0.25" d="M14.1238 8.85331L33.9841 20.1438C34.2439 20.2721 34.4709 20.4581 34.6474 20.6878C34.8241 20.9175 34.9457 21.1845 35.0031 21.4686C34.9773 21.1559 34.8695 20.8557 34.6906 20.598C34.5117 20.3405 34.2679 20.1345 33.9841 20.0011L14.1238 8.71065C12.6972 7.90564 11.5355 8.57818 11.5355 10.2086V10.3614C11.5661 8.72083 12.7074 8.0483 14.1238 8.85331Z" fill="white"/>
<path d="M44.2862 15.6296H43.532V13.5916H44.174C44.4668 13.2814 44.6879 12.9107 44.8216 12.5058C44.9555 12.1008 44.9988 11.6714 44.9484 11.2479V8.22149H49.0245V13.5815H49.7072V15.6194H48.9531V14.3355H44.2862V15.6296ZM45.7026 11.2785C45.75 12.1005 45.5476 12.9176 45.1218 13.6222H48.1787V8.97556H45.7026V11.2785ZM55.8009 13.5406C55.2051 14.133 54.3991 14.4655 53.559 14.4655C52.7189 14.4655 51.9129 14.133 51.3173 13.5406C50.7382 12.9277 50.4156 12.1166 50.4156 11.2734C50.4156 10.4302 50.7382 9.61904 51.3173 9.00613C51.6108 8.71036 51.9601 8.47561 52.3448 8.31542C52.7297 8.15523 53.1423 8.07275 53.559 8.07275C53.9758 8.07275 54.3885 8.15523 54.7732 8.31542C55.1579 8.47561 55.5072 8.71036 55.8009 9.00613C56.3822 9.61786 56.7062 10.4295 56.7062 11.2734C56.7062 12.1172 56.3822 12.9289 55.8009 13.5406ZM51.8981 13.0312C52.3392 13.4705 52.9364 13.7172 53.559 13.7172C54.1816 13.7172 54.7789 13.4705 55.22 13.0312C55.6553 12.5512 55.8966 11.9265 55.8966 11.2785C55.8966 10.6305 55.6553 10.0057 55.22 9.52582C54.7789 9.0865 54.1816 8.83985 53.559 8.83985C52.9364 8.83985 52.3392 9.0865 51.8981 9.52582C51.4627 10.0057 51.2216 10.6305 51.2216 11.2785C51.2216 11.9265 51.4627 12.5512 51.8981 13.0312ZM60.6614 14.468C60.2408 14.4763 59.8228 14.3995 59.4327 14.242C59.0424 14.0845 58.6881 13.8498 58.3911 13.5517C58.0941 13.2538 57.8604 12.8987 57.7042 12.5081C57.548 12.1174 57.4724 11.6991 57.4821 11.2785C57.4724 10.8579 57.548 10.4396 57.7042 10.0489C57.8604 9.65824 58.0941 9.30322 58.3911 9.00522C58.6881 8.70723 59.0424 8.47244 59.4327 8.31498C59.8228 8.15753 60.2408 8.08067 60.6614 8.08902C61.0879 8.07847 61.511 8.16467 61.8993 8.34116C62.2876 8.51765 62.6309 8.77984 62.9033 9.10803L62.353 9.63791C62.1518 9.38239 61.8923 9.17875 61.5962 9.04403C61.3001 8.90929 60.9761 8.84738 60.6512 8.86346C60.3385 8.85533 60.0274 8.91074 59.7366 9.02635C59.4458 9.14195 59.1816 9.31533 58.9598 9.53601C58.5179 10.0188 58.2729 10.6495 58.2729 11.304C58.2729 11.9584 58.5179 12.5891 58.9598 13.0719C59.1816 13.2927 59.4458 13.466 59.7366 13.5816C60.0274 13.6972 60.3385 13.7526 60.6512 13.7445C61.0099 13.7413 61.3634 13.6582 61.686 13.5014C62.0085 13.3445 62.2921 13.1177 62.516 12.8376L63.0663 13.3878C62.789 13.7242 62.4412 13.9956 62.0473 14.1827C61.6124 14.3797 61.1389 14.4771 60.6614 14.468ZM66.2659 14.3355H65.4814V8.97556H63.7694V8.22149H67.9677V8.97556H66.2659V14.3355ZM73.3684 8.22149L71.0553 13.3776C70.9626 13.6827 70.7776 13.9514 70.5257 14.1467C70.2739 14.342 69.9675 14.4543 69.6491 14.468C69.4384 14.4653 69.2305 14.4202 69.0377 14.3355L69.2414 13.612C69.3652 13.6841 69.5057 13.7227 69.6491 13.7241C69.7988 13.7353 69.9484 13.6997 70.0771 13.6222C70.1998 13.5183 70.2945 13.3851 70.3522 13.2349L70.5763 12.7459L68.5383 8.23168H69.4657L70.9737 11.7371L72.4411 8.22149H73.3684ZM74.255 14.3355V8.22149H78.6775V14.3355H77.8928V8.97556H75.0395V14.3355H74.255ZM80.0734 14.3355V8.22149H80.8581V10.8403H83.9151V8.22149H84.6996V14.3355H83.9151V11.574H80.8581V14.3355H80.0734ZM91.1092 13.5406C90.5135 14.133 89.7075 14.4655 88.8674 14.4655C88.0273 14.4655 87.2213 14.133 86.6256 13.5406C86.0465 12.9277 85.724 12.1166 85.724 11.2734C85.724 10.4302 86.0465 9.61904 86.6256 9.00613C86.9193 8.71036 87.2685 8.47561 87.6532 8.31542C88.038 8.15523 88.4506 8.07275 88.8674 8.07275C89.2841 8.07275 89.6968 8.15523 90.0816 8.31542C90.4664 8.47561 90.8156 8.71036 91.1092 9.00613C91.6905 9.61786 92.0147 10.4295 92.0147 11.2734C92.0147 12.1172 91.6905 12.9289 91.1092 13.5406ZM87.2065 13.0312C87.6476 13.4705 88.2448 13.7172 88.8674 13.7172C89.49 13.7172 90.0872 13.4705 90.5284 13.0312C90.9638 12.5512 91.2049 11.9265 91.2049 11.2785C91.2049 10.6305 90.9638 10.0057 90.5284 9.52582C90.0872 9.0865 89.49 8.83985 88.8674 8.83985C88.2448 8.83985 87.6476 9.0865 87.2065 9.52582C86.7711 10.0057 86.5299 10.6305 86.5299 11.2785C86.5299 11.9265 86.7711 12.5512 87.2065 13.0312ZM95.2157 14.3355V8.22149H97.427C97.8861 8.21282 98.3311 8.38059 98.6701 8.69023C98.8405 8.83801 98.9762 9.02139 99.0677 9.22741C99.1593 9.43343 99.2045 9.65706 99.2001 9.88247C99.2048 10.1541 99.1266 10.4207 98.9759 10.6467C98.8262 10.8662 98.618 11.0393 98.3746 11.146C98.6703 11.2439 98.9294 11.4285 99.1186 11.676C99.3145 11.9255 99.4189 12.2349 99.4141 12.5523C99.4193 12.7872 99.3727 13.0203 99.2776 13.2352C99.1825 13.45 99.0412 13.6413 98.8638 13.7954C98.509 14.1227 98.0421 14.3015 97.5595 14.2948L95.2157 14.3355ZM96.0004 10.8403H97.427C97.5602 10.8459 97.693 10.8223 97.8163 10.7713C97.9395 10.7203 98.0501 10.643 98.1403 10.5448C98.2305 10.463 98.3034 10.3639 98.3544 10.2533C98.4055 10.1428 98.4338 10.023 98.4376 9.9013C98.4414 9.77959 98.4206 9.65834 98.3766 9.5448C98.3325 9.43127 98.266 9.32778 98.1811 9.24049C98.0959 9.14417 97.9906 9.06777 97.8726 9.0167C97.7546 8.96563 97.6269 8.94115 97.4983 8.94499H96.0412L96.0004 10.8403ZM96.0004 13.5815H97.5799C97.7179 13.5861 97.8553 13.5602 97.9821 13.5056C98.1089 13.451 98.222 13.369 98.3135 13.2656C98.4932 13.0792 98.5952 12.8315 98.5989 12.5727C98.5989 12.3024 98.4915 12.0432 98.3004 11.8521C98.1093 11.661 97.8502 11.5537 97.5799 11.5537H96.031L96.0004 13.5815Z" fill="white" stroke="white" stroke-width="1.15702" stroke-miterlimit="10"/>
</g>
</g>
<defs>
<linearGradient id="paint0_linear_1_581" x1="23.5902" y1="9.964" x2="6.4914" y2="27.0628" gradientUnits="userSpaceOnUse">
<stop stop-color="#00A0FF"/>
<stop offset="0.01" stop-color="#00A1FF"/>
<stop offset="0.26" stop-color="#00BEFF"/>
<stop offset="0.51" stop-color="#00D2FF"/>
<stop offset="0.76" stop-color="#00DFFF"/>
<stop offset="1" stop-color="#00E3FF"/>
</linearGradient>
<linearGradient id="paint1_linear_1_581" x1="35.8489" y1="21.4686" x2="11.1993" y2="21.4686" gradientUnits="userSpaceOnUse">
<stop stop-color="#FFE000"/>
<stop offset="0.41" stop-color="#FFBD00"/>
<stop offset="0.78" stop-color="#FFA500"/>
<stop offset="1" stop-color="#FF9C00"/>
</linearGradient>
<linearGradient id="paint2_linear_1_581" x1="26.6779" y1="23.8122" x2="3.48542" y2="46.9944" gradientUnits="userSpaceOnUse">
<stop stop-color="#FF3A44"/>
<stop offset="1" stop-color="#C31162"/>
</linearGradient>
<linearGradient id="paint3_linear_1_581" x1="8.8148" y1="1.27179" x2="19.1678" y2="11.6249" gradientUnits="userSpaceOnUse">
<stop stop-color="#32A071"/>
<stop offset="0.07" stop-color="#2DA771"/>
<stop offset="0.48" stop-color="#15CF74"/>
<stop offset="0.8" stop-color="#06E775"/>
<stop offset="1" stop-color="#00F076"/>
</linearGradient>
<clipPath id="clip0_1_581">
<rect width="140" height="40" fill="white" transform="translate(0 0.800049)"/>
</clipPath>
<clipPath id="clip1_1_581">
<rect width="140" height="41.6529" fill="white" transform="translate(0 -0.0263672)"/>
</clipPath>
</defs>
</svg>
