<svg width="33" height="32" viewBox="0 0 33 32" fill="none" xmlns="http://www.w3.org/2000/svg">
<g opacity="0.6">
<path d="M19.5453 16.0001C19.5453 14.429 18.2717 13.1556 16.7008 13.1556C15.1298 13.1556 13.8563 14.429 13.8563 16.0001C13.8563 17.5709 15.1298 18.8446 16.7008 18.8446C18.2717 18.8446 19.5453 17.5709 19.5453 16.0001Z" fill="white"/>
<path fill-rule="evenodd" clip-rule="evenodd" d="M15.9354 9.00448C16.1625 9.00415 16.4161 9.00448 16.7008 9.00448C18.9793 9.00448 19.2493 9.01266 20.1491 9.05355C20.9811 9.09159 21.4326 9.23063 21.7334 9.34741C22.1316 9.50212 22.4156 9.68697 22.7141 9.98568C23.0127 10.2843 23.1976 10.5688 23.3527 10.967C23.4695 11.2675 23.6086 11.719 23.6465 12.551C23.6874 13.4506 23.6963 13.7208 23.6963 15.9982C23.6963 18.2755 23.6874 18.5457 23.6465 19.4453C23.6084 20.2773 23.4695 20.7289 23.3527 21.0293C23.198 21.4276 23.0127 21.7111 22.7141 22.0096C22.4154 22.3083 22.1318 22.4932 21.7334 22.6478C21.433 22.7652 20.9811 22.9039 20.1491 22.9419C19.2495 22.9828 18.9793 22.9917 16.7008 22.9917C14.4222 22.9917 14.1521 22.9828 13.2527 22.9419C12.4206 22.9035 11.969 22.7644 11.6681 22.6477C11.2698 22.493 10.9854 22.3081 10.6868 22.0094C10.3881 21.7108 10.2032 21.427 10.0482 21.0286C9.93138 20.7282 9.79214 20.2766 9.7543 19.4446C9.71337 18.545 9.70523 18.2748 9.70523 15.996C9.70523 13.7172 9.71337 13.4484 9.7543 12.5489C9.79231 11.7169 9.93138 11.2653 10.0482 10.9645C10.2029 10.5663 10.3881 10.2818 10.6868 9.98315C10.9854 9.68449 11.2698 9.49959 11.6681 9.3446C11.9689 9.22725 12.4206 9.08858 13.2527 9.05037C14.0398 9.01481 14.3449 9.00415 15.9354 9.00236V9.00448ZM21.2559 10.4214C20.6906 10.4214 20.2319 10.8795 20.2319 11.445C20.2319 12.0104 20.6906 12.469 21.2559 12.469C21.8213 12.469 22.2799 12.0104 22.2799 11.445C22.2799 10.8797 21.8213 10.421 21.2559 10.4214ZM12.3186 16.0001C12.3186 13.58 14.2807 11.6178 16.7008 11.6178C19.1207 11.6178 21.0824 13.58 21.0824 16.0001C21.0824 18.4202 19.121 20.3815 16.7008 20.3815C14.2807 20.3815 12.3186 18.4202 12.3186 16.0001Z" fill="white"/>
<path fill-rule="evenodd" clip-rule="evenodd" d="M16.7 0C7.86342 0 0.700012 7.16345 0.700012 16C0.700012 24.8365 7.86342 32 16.7 32C25.5366 32 32.7 24.8365 32.7 16C32.7 7.16345 25.5366 0 16.7 0ZM13.1822 7.51823C14.0921 7.47681 14.3829 7.46667 16.6981 7.46667C19.0163 7.46667 19.3061 7.47681 20.2164 7.51823C21.1248 7.55981 21.7452 7.70365 22.2893 7.91467C22.851 8.13245 23.3257 8.42403 23.8004 8.89868C24.275 9.37301 24.5666 9.84908 24.7853 10.4104C24.9951 10.9529 25.139 11.573 25.1818 12.4815C25.2226 13.3917 25.2333 13.6826 25.2333 16.0001C25.2333 18.3176 25.2226 18.6078 25.1818 19.518C25.139 20.4261 24.9951 21.0464 24.7853 21.5892C24.5666 22.1502 24.275 22.6263 23.8004 23.1006C23.3262 23.5753 22.8509 23.8676 22.2898 24.0855C21.7469 24.2966 21.126 24.4403 20.2176 24.482C19.3073 24.5234 19.0174 24.5335 16.6997 24.5335C14.3824 24.5335 14.0917 24.5234 13.1814 24.482C12.2732 24.4403 11.6529 24.2966 11.11 24.0855C10.5491 23.8676 10.073 23.5753 9.59885 23.1006C9.12433 22.6263 8.83282 22.1502 8.61464 21.5889C8.40379 21.0464 8.25999 20.4263 8.21824 19.5178C8.17698 18.6076 8.16664 18.3176 8.16664 16.0001C8.16664 13.6826 8.1773 13.3915 8.218 12.4813C8.25893 11.5732 8.40289 10.9529 8.61448 10.4102C8.83315 9.84908 9.12473 9.37301 9.59934 8.89868C10.0737 8.42419 10.5498 8.13265 11.1111 7.91467C11.6536 7.70365 12.2737 7.55981 13.1822 7.51823Z" fill="white"/>
</g>
</svg>
